<?xml version="1.0" standalone="no"?>
<!DOCTYPE svg PUBLIC "-//W3C//DTD SVG 20010904//EN"
 "http://www.w3.org/TR/2001/REC-SVG-20010904/DTD/svg10.dtd">
<svg version="1.0" xmlns="http://www.w3.org/2000/svg"
 width="231.000000pt" height="231.000000pt" viewBox="0 0 231.000000 231.000000"
 preserveAspectRatio="xMidYMid meet">
<metadata>
Created by potrace 1.11, written by Peter Selinger 2001-2013
</metadata>
<g transform="translate(0.000000,231.000000) scale(0.100000,-0.100000)"
fill="#000000" stroke="none">
<path d="M314 2150 c-8 -3 -82 -122 -164 -264 l-150 -259 119 -206 c65 -113
128 -222 139 -241 12 -19 36 -62 55 -95 56 -97 64 -113 302 -525 126 -217 230
-397 232 -400 2 -2 140 -5 306 -5 l302 0 113 194 c61 107 112 196 112 198 0 2
8 16 19 31 10 15 74 124 141 242 68 118 147 256 176 305 29 50 106 183 171
296 l120 205 -153 264 -153 263 -836 1 c-460 1 -843 -1 -851 -4z m1361 -550
c-7 -14 -82 -144 -165 -290 -84 -146 -161 -281 -172 -300 -130 -228 -164 -286
-169 -290 -3 -3 -8 -11 -10 -18 -2 -7 -44 56 -93 140 -118 202 -263 453 -292
505 -13 23 -53 92 -89 153 -36 61 -65 113 -65 115 0 8 87 10 567 10 l501 1
-13 -26z"/>
</g>
</svg>
