<svg id="Capa_1" data-name="Capa 1" xmlns="http://www.w3.org/2000/svg" viewBox="0 0 564 302">
  <defs>
    <style>
      .cls-1, .cls-10, .cls-2, .cls-3, .cls-4, .cls-5, .cls-6, .cls-7, .cls-8, .cls-9 {
        fill: none;
        stroke-linecap: round;
        stroke-miterlimit: 10;
      }

      .cls-1, .cls-10, .cls-2, .cls-3, .cls-4, .cls-5, .cls-6, .cls-7, .cls-8 {
        stroke: #fff;
      }

      .cls-1 {
        stroke-width: 16px;
      }

      .cls-2 {
        stroke-width: 5px;
      }

      .cls-3 {
        stroke-width: 10px;
      }

      .cls-4 {
        stroke-width: 13px;
      }

      .cls-5 {
        stroke-width: 4px;
      }

      .cls-6 {
        stroke-width: 8px;
      }

      .cls-7 {
        stroke-width: 11px;
      }

      .cls-8, .cls-9 {
        stroke-width: 15px;
      }

      .cls-9 {
        stroke: #f30089;
      }

      .cls-10 {
        stroke-width: 20px;
      }
    </style>
    <clipPath id="mask">
        <path d="M119,142.25c-1.5,22.78-5.18,56.25-5.18,78.1a3,3,0,0,1-2.19,3.11,1.33,1.33,0,0,1-1.5-.68c-1.27-2-4.72-1.78-4.72-6.27,0-9.55,4.14-48.38,6.79-72C98,149,86.07,152.75,79.4,153.81c-11.16,1.77-24.5-1.18-24.5-13.49,0-2.42,1.15-3.17,2.19-3.34,2.07-.33,1.5,4.59,11.16,3.06,33-5.23,63.94-19.21,95.57-24.22,13.8-2.19,23.12-2.63,31.17,4.84a2.77,2.77,0,0,1,.46,1.54c0,3.33-5.06,4.48-7.13,5.61-1.38.68-6.44,3-6.44,3s-2,.31-2-.61c0-1.15,1.15-1.68,2.65-3.29,0,0-1.38-.7-6.67.14C159.22,129.67,137.82,136.27,119,142.25Zm47.84.13c0,3.11,1.61,5.61,5.29,5,4-.64,7.36-6.69,7.36-11.06,0-2.87-1.38-5.07-5.06-4.49C169.79,132.59,166.8,138.13,166.8,142.38ZM212.23,168c0-.92-.23-1.11-.58-1.06a2,2,0,0,0-.92.61c-4.95,11.82-21.39,34.21-36,36.52-3.33.53-5.75-.7-5.75-5.3,0-11.5,1.61-18.43,4.6-35.58,0,0,0-.92-1.38-.7a32.22,32.22,0,0,1-7,1.92c-.92.15-1.38,1.71-1.38,1.71a184,184,0,0,0-3.18,27.18l0,.12c-2.53,7.07-5.29,10.38-7.59,10.75-2.65.42-4.6-3.07-4.6-9.16,0-5.75,3.33-17.89,6.56-24.84a4.18,4.18,0,0,0,.35-1.55c0-1.61-2.3-4.24-3.8-4-.92.15-7,7.55-11,10.83a7.69,7.69,0,0,1-2.53,1.55c-.81.13-1-.64-1-2.6,0-2.19.57-5.15.57-7.57,0-2.87-.8-5.16-4.25-4.62s-5.41,5.11-5.41,9.83c0,3.91,1.27,8,3.79,10-1.27,10.21-6.33,25.73-12.77,35.14a1,1,0,0,0-.23.73c0,.92,1.5.91,2.76.71.92-.15,1.73-.39,1.73-.62,5.06-8.28,11.27-25.13,12.19-34.59a8.17,8.17,0,0,0,1.73-.16,18,18,0,0,0,6.79-2.46,87,87,0,0,0-2.88,19.78c0,7.36,1.84,13.62,8.17,12.62,5.86-.93,9.76-7.14,12-13.24,2.19,9.23,12,11.17,20.82,9.77a32,32,0,0,0,9.89-3.18,39.12,39.12,0,0,0,21.16-34.4c0-1-.81-1.14-.92-2.27A16.75,16.75,0,0,0,212.23,168Zm138.6-7.36c0,8.17-6.33,17.22-14.84,18.57-6.92,1.1-11.48-1.75-14.08-6.6-1.3,8.25-6.67,14-11.68,14.82s-9.55-3.2-9.55-14.47a97.66,97.66,0,0,1,2.88-21.62,19.34,19.34,0,0,1-7.59,2.58c-1.38,19.65-15.07,34.93-26.34,36.72-10.24,1.62-15.3-8.85-15.3-21,0-14,6.79-30.17,20.24-32.3,5.17-.82,8.28,4.32,8.28,9.61,0,4.49-2.3,9.1-7.59,9.94-2.42.38-3.34-.39-3.34-1a.37.37,0,0,1,.35-.4c1-.28,3.1-5.44,3.1-8,0-.92-.34-1.44-.92-1.35-6.9,1.09-12.42,14.16-12.42,24.74,0,7.94,3.1,14.46,11,13.2,6.56-1,14.15-7.88,17-17a69.67,69.67,0,0,0,2.65-13.76c-3.45-1.64-5.17-6.2-5.17-10.8s1.84-9.26,5.41-9.83,4.25,1.74,4.25,4.62c0,2.42-.57,5.38-.57,7.57,0,2,.23,2.72,1,2.6a7.69,7.69,0,0,0,2.53-1.55c4-3.28,10.12-10.69,11-10.83,1.5-.24,3.8,2.39,3.8,4a4.18,4.18,0,0,1-.35,1.55s-2.07,5.73-2.87,7.82a51.47,51.47,0,0,0-3.68,18.41c0,9.43,2.53,15,5.52,14.54,2-.31,4.14-3.3,6-9.46a3.25,3.25,0,0,1,1.08-2.07,30.43,30.43,0,0,1-1.54-10c0-13.92,7.25-30.36,18.4-32.13,5.17-.82,8,2.52,8,7.81,0,7.13-5.29,17.63-17.37,26.44.69,9.44,4.14,12.57,7.94,12,4.48-.71,9.08-6.84,9.08-14.32a19.1,19.1,0,0,0-1-6c0-.12,0-.69,1.38-.91C349.91,152,350.83,156.57,350.83,160.6Zm-22.66-3.43c4.6-3.83,10.81-15.17,10.81-20.8,0-1-.46-2.11-1.73-1.91C332.2,135.26,328.41,146.9,328.18,157.17Zm77.28-42.83c-2.42,12.46-4.72,27.54-4.72,40.08,0,9,1.15,16.61,4.37,21.16a2,2,0,0,1-1.61,1.87c-4.62-1.5-7.15-7.35-8.37-15.37-1.68,4.58-5.82,8.53-9.91,9.18-4.48.71-8.86-2.51-10-12.68-3.11,8.54-7.48,15.44-12,16.16-7.93,1.26-11.38-6.59-11.38-16.48,0-14.38,7.13-33.1,18.06-34.83,6.09-1,9.08,2.47,9.89,7.63,2.07.25,4.95.71,4.95,2.09,0,3.33-1.61,14.06-1.61,22.22,0,5.87.8,10.34,3.68,9.88,2.53-.4,5.64-3.19,6.79-6.14a2.46,2.46,0,0,0,1-.89c-.32-3.37-.46-7-.46-10.82a259.06,259.06,0,0,1,2-29.64,44.36,44.36,0,0,1-7.36,1.74c-6.1,1-8.74-2.64-8.74-8.85,0-1,.35-2.82,1-2.92a.7.7,0,0,1,.69.35c4,1.09,9.2.84,14.49,0l1.15-.18c.92-6.7,2-12.62,3.22-20.18a2.38,2.38,0,0,1,1.27-.89c.12,0,.34-.05.46,0,2.53,1.32,7.94.24,7.94,2.77,0,1.5-1.5,7.71-3.22,16.15,3.93-1.09,7.53-2.25,10.36-3.16a5.7,5.7,0,0,1-1.28-3.91c0-4.25,3-9.79,7.59-10.52,3.68-.58,5.06,1.61,5.06,4.49a14.1,14.1,0,0,1-3,8.1c.36.08.59.24.59.56,0,.81-1.38,1-1.72,1.65a9.83,9.83,0,0,0-1,2.35A146.65,146.65,0,0,1,405.46,114.34ZM375.9,135.12c-2-2.22-3.79-3.08-5.52-2.81-7.13,1.13-11.85,20.39-11.85,29.48,0,4.72,1.15,7.87,3.45,7.5C371.42,167.81,374.87,144.37,375.9,135.12Zm53.47,15.68a1.9,1.9,0,0,0-1,.85c-1.26,3.19-4.95,7.91-7.48,8.31-1.5.24-2.53-1-2.53-4.89,0-11.5,1.61-18.43,4.6-35.58,0,0,0-.92-1.38-.7a32.24,32.24,0,0,1-7,1.92c-.92.15-1.38,1.71-1.38,1.71-1.15,5.24-3.22,16.84-3.22,26.85,0,9.66,2,17.75,8.39,16.73,5.52-.87,10.35-7.62,11.62-14.37v-.23C430,150.94,429.72,150.75,429.38,150.81Zm28.86-48.39c-1.84.29-4.37,1.73-7.82,3.65a65.27,65.27,0,0,1,2.64,18.44c0,16.68-5.87,30.37-8.28,30.75-3.11.49-5.17-32.53-5.17-37.13,0-2.07-3.22-3.4-6.1-2.94a4.66,4.66,0,0,0-3.45,2.16c0,5.64,2.65,46,13,44.4,6.79-1.07,18.63-32.74,18.63-52.06C461.69,103.82,460.66,102,458.24,102.42ZM522,119v.11c0,22.31-16.22,35.12-31.74,37.57-14,2.22-27.37-4.06-27.37-19.59,0-13.92,7.25-30.36,18.4-32.13,5.17-.82,8.05,2.52,8.05,7.81,0,7.25-5.41,17.88-17.83,26.74.69,9.55,5.29,12.85,11.62,11.85,11.73-1.86,29.21-18.89,36.69-37a2,2,0,0,1,.92-.61c.34-.05.57.14.57,1.06a16.62,16.62,0,0,1-.23,1.88C521.15,117.87,522,118,522,119Zm-50.49,16.16c7.48-6.82,11.62-16.1,11.62-20.7,0-2-.69-3-2.18-2.76C475.83,112.51,471.92,124.86,471.46,135.17ZM247.24,168.88l.37-.5-2.75-1.91L222.71,144l-6,6,20.18,20.45-20.18,26.84,6,4.15L244.87,172l2.75-2.78Z"/>
    </clipPath>
  </defs>
  <title>strokesandmask-01</title>
  <path class="cls-1" clip-path="url(#mask)" d="M56.92,139.63a26.42,26.42,0,0,0,15.17,7.12c10.25,1.12,81.34-25.5,94.72-25.5s27.41,0,19.28,4.5"/>
  <path class="cls-1" clip-path="url(#mask)" d="M115.92,136.67s-7.67,72.33-6,81"/>
  <path class="cls-2" clip-path="url(#mask)" d="M121.09,217.67s12.38-26.92,12.88-37.29,3.24-12.68,1-15.37-4.25,2.88-4.25,2.88"/>
  <path class="cls-3" clip-path="url(#mask)" d="M130.46,169s.5,17.92,10.38,10.29,13.75-13.75,11.5-11.37-9.37,24.38-6.75,37.63,11.88-8.25,11.88-8.25,10.88-24.37,10.25-31.37,3.5-1.61,3.5-1.61-7.63,31.88-5.44,37.24,11.82,9.12,21.82,1.74"/>
  <path class="cls-4" clip-path="url(#mask)" d="M189.71,201.51s23-16.59,23.21-32.55"/>
  <path class="cls-3" clip-path="url(#mask)" d="M177.21,138.63s-1.25-6.37-4.75-.62-2.25,6.63,3,4.13"/>
  <path class="cls-3" clip-path="url(#mask)" d="M274.34,155.75s7-6.19,4.25-11.72-13.75-.78-17,9.22-7,31.25,4.25,34S282,182,282,182"/>
  <path class="cls-5" clip-path="url(#mask)" d="M283.84,180s11.5-14.92,10.83-27.92,4.83-19.38-2.25-17.65"/>
  <path class="cls-6" clip-path="url(#mask)" d="M291.84,134.43s-1.58,7,0,11.37,1.33,8.36,9.25,3.2,12.75-8.17,12-9.75-2.92-.25-2.92-.25l-3.92,3.94,4.08,1.56s-5.58,9.83-5.08,18.08"/>
  <path class="cls-3" clip-path="url(#mask)" d="M305,163.75s-1.42,17.5,3.75,19.17,8.59-2.09,9.75-5.08c.58-1.5-4.34-8.42-3.58-10.25"/>
  <path class="cls-3" clip-path="url(#mask)" d="M317.59,169s17.17-12.12,19.83-19.12,9.56-22.28-1.17-17.57-11.33,17.23-11.33,17.23-3.83,18.5,1.83,22.33,13.33,8.69,18.5-5.74-1.67-12.5-1.67-12.5"/>
  <path class="cls-3" clip-path="url(#mask)" d="M376.59,131s-8.62-12.24-16.12,7.63-6.25,34.13.88,32.63,15.34-28.9,11.52-39.17,7.48,1,7.48,1-2.62,31.5,2.75,34.63,7.25-8.56,7.25-8.56"/>
  <path class="cls-7" clip-path="url(#mask)" d="M405.75,89.5s-15.67,67.17-3.5,85.17"/>
  <path class="cls-3" clip-path="url(#mask)" d="M418.75,120.5s-11.33,50.86,2.5,42.08c12.09-7.67,5.67-11.58,5.67-11.58"/>
  <path class="cls-3" clip-path="url(#mask)" d="M425.92,94.67s-.33-6.17-4.42-.83-2.85,10.8,2.21,4.5"/>
  <path class="cls-8" clip-path="url(#mask)" d="M434.84,118.77s.88,33.48,7,39.1,12.75-24.25,12.75-24.25,4.38-25.39,1.88-31.26"/>
  <path class="cls-8" clip-path="url(#mask)" d="M468.34,138.5s20.5-10.9,17.5-26.82-18.75,11.79-19,15.93-1.5,41,33.5,21.7,17.75-56.56,17.75-56.56"/>
  <path class="cls-9" clip-path="url(#mask)" d="M219.29,200.25c13.92-13.37,21.46-28.56,21.08-31.29s-21.08-21.47-21.08-21.47"/>
  <path class="cls-3" clip-path="url(#mask)" d="M407.43,108.61s15.68-2.75,18-2.87"/>
  <path class="cls-10" clip-path="url(#mask)" d="M382.75,114.72s25.94-5.34,27.19-5.27"/>
</svg>
